# xmcd CD database file
#
# Track frame offsets:
#	150
#	18986
#	34818
#	56921
#	86380
#	110133
#	125939
#	132608
#	152246
#	172239
#	191771
#
# Disc length: 3016 seconds
#
# Revision: 0
# Processed by: cddbd v1.5.1PL2 Copyright (c) Steve Scherf et al.
# Submitted via: CDex 1.51
#
DISCID=a80bc60b
DTITLE=Curtis Jones - Acoustic Room
DYEAR=1900
DGENRE=Jazz
TTITLE0=Taz Com[Panion
TTITLE1=My Sailboat
TTITLE2=Missing Django
TTITLE3=Ghost Rider
TTITLE4=Demonology
TTITLE5=Human Scaredrows
TTITLE6=Amelia's Takeoff
TTITLE7=Amelia In Flight
TTITLE8=Lonesome Jimmy
TTITLE9=Sailing Away
TTITLE10=Emerald Isles
EXTD=
EXTT0=
EXTT1=
EXTT2=
EXTT3=
EXTT4=
EXTT5=
EXTT6=
EXTT7=
EXTT8=
EXTT9=
EXTT10=
PLAYORDER=
